<?xml version="1.0" encoding="UTF-8" standalone="no"?>
<svg
   xmlns:dc="http://purl.org/dc/elements/1.1/"
   xmlns:cc="http://creativecommons.org/ns#"
   xmlns:rdf="http://www.w3.org/1999/02/22-rdf-syntax-ns#"
   xmlns:svg="http://www.w3.org/2000/svg"
   xmlns="http://www.w3.org/2000/svg"
   viewBox="0 0 59.528 59.528"
   height="59.528"
   width="59.528"
   xml:space="preserve"
   id="svg2"
   version="1.1"><metadata
     id="metadata8"><rdf:RDF><cc:Work
         rdf:about=""><dc:format>image/svg+xml</dc:format><dc:type
           rdf:resource="http://purl.org/dc/dcmitype/StillImage" /><dc:title></dc:title></cc:Work></rdf:RDF></metadata><defs
     id="defs6"><clipPath
       id="clipPath20"
       clipPathUnits="userSpaceOnUse"><path
         id="path18"
         d="M 0,0 V 44.64656 H 44.64656 V 0 Z" /></clipPath></defs><g
     transform="matrix(1.3333333,0,0,-1.3333333,0,59.528)"
     id="g10"><g
       id="g12"><g
         id="g14"><g
           clip-path="url(#clipPath20)"
           id="g16"><g
             id="g22"><path
               id="path24"
               style="fill:#1956d0;fill-opacity:1;fill-rule:nonzero;stroke:none"
               d="M 0,0 V 44.64656 H 44.64656 V 0 Z" /></g><g
             id="g26"><g
               id="g28"><path
                 id="path30"
                 style="fill:#ffc600;fill-opacity:1;fill-rule:nonzero;stroke:none"
                 d="M 0,63.13985 -6.56642,33.01457 -24.16107,58.33131 -18.70079,27.98804 -44.64665,44.64665 -27.98804,18.70079 -58.33131,24.16107 -33.01457,6.56642 -63.13985,0 l 30.12528,-6.56642 -25.31674,-17.59465 30.34327,5.46028 -16.65861,-25.94586 25.94586,16.65861 -5.46028,-30.34327 17.59465,25.31674 L 0,-63.13985 6.56642,-33.01457 24.16107,-58.33131 18.70079,-27.98804 44.64665,-44.64665 27.98804,-18.70079 58.33131,-24.16107 33.01457,-6.56642 63.13985,0 33.01457,6.56642 58.33131,24.16107 27.98804,18.70079 44.64665,44.64665 18.70079,27.98804 24.16107,58.33131 6.56642,33.01457 Z" /></g><g
               id="g32"><g
                 id="g34" /></g></g><g
             id="g36"><g
               id="g38"><path
                 id="path40"
                 style="fill:#fcf300;fill-opacity:1;fill-rule:nonzero;stroke:none"
                 d="M 0,44.64656 -3.29913,33.4984 -8.70912,43.78749 -9.77106,32.21172 l -7.31337,9.03471 1.21691,-11.5603 -8.9355,7.43463 3.44924,-11.10103 -10.21614,5.55019 5.55019,-10.21614 -11.10103,3.44924 7.43463,-8.9355 -11.5603,1.21691 9.03471,-7.31337 L -43.78749,8.70912 -33.4984,3.29913 -44.64656,0 l 11.14816,-3.29913 -10.28909,-5.40999 11.57577,-1.06194 -9.03471,-7.31337 11.5603,1.21691 -7.43463,-8.9355 11.10103,3.44924 -5.55019,-10.21614 10.21614,5.55019 -3.44924,-11.10103 8.9355,7.43463 -1.21691,-11.5603 7.31337,9.03471 1.06194,-11.57577 5.40999,10.28909 L 0,-44.64656 l 3.29913,11.14816 5.40999,-10.28909 1.06194,11.57577 7.31337,-9.03471 -1.21691,11.5603 8.9355,-7.43463 -3.44924,11.10103 10.21614,-5.55019 -5.55019,10.21614 11.10103,-3.44924 -7.43463,8.9355 11.5603,-1.21691 -9.03471,7.31337 11.57577,1.06194 L 33.4984,-3.29913 44.64656,0 33.4984,3.29913 43.78749,8.70912 32.21172,9.77106 l 9.03471,7.31337 -11.5603,-1.21691 7.43463,8.9355 -11.10103,-3.44924 5.55019,10.21614 -10.21614,-5.55019 3.44924,11.10103 -8.9355,-7.43463 1.21691,11.5603 L 9.77106,32.21172 8.70912,43.78749 3.29913,33.4984 Z" /></g><g
               id="g42"><g
                 id="g44" /></g></g><g
             id="g46"><path
               id="path48"
               style="fill:#ffc600;fill-opacity:1;fill-rule:nonzero;stroke:#ffffff;stroke-width:1.59404004;stroke-linecap:butt;stroke-linejoin:miter;stroke-miterlimit:10;stroke-dasharray:none;stroke-opacity:1"
               d="M 33.66226,0 C 33.66226,18.59138 18.59138,33.66226 0,33.66226 -18.59138,33.66226 -33.66226,18.59138 -33.66226,0 c 0,-18.59138 15.07088,-33.66226 33.66226,-33.66226 18.59138,0 33.66226,15.07088 33.66226,33.66226 z" /></g><g
             id="g50"><path
               id="path52"
               style="fill:#fcf300;fill-opacity:1;fill-rule:nonzero;stroke:#ffffff;stroke-width:1.59404004;stroke-linecap:butt;stroke-linejoin:miter;stroke-miterlimit:10;stroke-dasharray:none;stroke-opacity:1"
               d="M 29.02759,0 C 29.02759,16.0317 16.0317,29.02759 0,29.02759 -16.0317,29.02759 -29.02759,16.0317 -29.02759,0 c 0,-16.0317 12.99589,-29.02759 29.02759,-29.02759 16.0317,0 29.02759,12.99589 29.02759,29.02759 z" /></g><g
             id="g54"><path
               id="path56"
               style="fill:none;stroke:#ffffff;stroke-width:1.59404004;stroke-linecap:butt;stroke-linejoin:miter;stroke-miterlimit:10;stroke-dasharray:none;stroke-opacity:1"
               d="M 0,16.75906 H 6.94157 L 11.8504,11.8504 16.75906,6.94133 V 0" /></g><g
             id="g58"><path
               id="path60"
               style="fill:none;stroke:#ffffff;stroke-width:1.59404004;stroke-linecap:butt;stroke-linejoin:miter;stroke-miterlimit:10;stroke-dasharray:none;stroke-opacity:1"
               d="M 0,0 63.13983,63.13983" /></g><g
             id="g62"><path
               id="path64"
               style="fill:none;stroke:#ffffff;stroke-width:1.59404004;stroke-linecap:butt;stroke-linejoin:miter;stroke-miterlimit:10;stroke-dasharray:none;stroke-opacity:1"
               d="M 6.94157,16.75906 18.9387,45.09277" /></g><g
             id="g66"><path
               id="path68"
               style="fill:none;stroke:#ffffff;stroke-width:1.59404004;stroke-linecap:butt;stroke-linejoin:miter;stroke-miterlimit:10;stroke-dasharray:none;stroke-opacity:1"
               d="M 16.75906,6.94133 45.09277,18.93811" /></g><g
             id="g70"><path
               id="path72"
               style="fill:none;stroke:#ffffff;stroke-width:0.3985;stroke-linecap:butt;stroke-linejoin:miter;stroke-miterlimit:10;stroke-dasharray:none;stroke-opacity:1"
               d="M 0,0 63.13983,63.13983" /></g></g></g></g></g></svg>